<svg id="visual" viewBox="0 0 1700 400" width="1700" height="400" xmlns="http://www.w3.org/2000/svg" xmlns:xlink="http://www.w3.org/1999/xlink" version="1.1"><rect x="0" y="0" width="1700" height="400" fill="#002233"></rect><path d="M0 302L40.5 299.5C81 297 162 292 243 305.7C324 319.3 405 351.7 486 361.3C567 371 648 358 728.8 345.5C809.7 333 890.3 321 971.2 320C1052 319 1133 329 1214 341.3C1295 353.7 1376 368.3 1457 368.7C1538 369 1619 355 1659.5 348L1700 341L1700 401L1659.5 401C1619 401 1538 401 1457 401C1376 401 1295 401 1214 401C1133 401 1052 401 971.2 401C890.3 401 809.7 401 728.8 401C648 401 567 401 486 401C405 401 324 401 243 401C162 401 81 401 40.5 401L0 401Z" fill="#0066FF" stroke-linecap="round" stroke-linejoin="miter"></path></svg>